PathFileType	4	(X/Y/Z)	C:/Users/opensim2020/Desktop/walking_exp_matlab/subject02_walking14_straight_01.trc	
DataRate	CameraRate	NumFrames	NumMarkers	Units	OrigDataRate	OrigDataStartFrame	OrigNumFrames	
100.00	100.00	4	41	mm	100.00	455	131	
Frame#	Time	LFHD			RFHD			LBHD			RBHD			C7			T10			CLAV			STRN			RBAK			LSHO			LUPA			LELB			LFRM			LWRA			LWRB			LFIN			RSHO			RUPA			RELB			RFRM			RWRA			RWRB			RFIN			LASI			RASI			LPSI			RPSI			LTHI			LKNE			LTIB			LANK			LHEE			LTOE			RTHI			RKNE			RTIB			RANK			RHEE			RTOE			*39			*40			
		X1	Y1	Z1	X2	Y2	Z2	X3	Y3	Z3	X4	Y4	Z4	X5	Y5	Z5	X6	Y6	Z6	X7	Y7	Z7	X8	Y8	Z8	X9	Y9	Z9	X10	Y10	Z10	X11	Y11	Z11	X12	Y12	Z12	X13	Y13	Z13	X14	Y14	Z14	X15	Y15	Z15	X16	Y16	Z16	X17	Y17	Z17	X18	Y18	Z18	X19	Y19	Z19	X20	Y20	Z20	X21	Y21	Z21	X22	Y22	Z22	X23	Y23	Z23	X24	Y24	Z24	X25	Y25	Z25	X26	Y26	Z26	X27	Y27	Z27	X28	Y28	Z28	X29	Y29	Z29	X30	Y30	Z30	X31	Y31	Z31	X32	Y32	Z32	X33	Y33	Z33	X34	Y34	Z34	X35	Y35	Z35	X36	Y36	Z36	X37	Y37	Z37	X38	Y38	Z38	X39	Y39	Z39	X40	Y40	Z40	X41	Y41	Z41	

115	1.140	1375.46802	571.49780	1709.08936	1519.02588	572.73022	1695.70557	1371.01111	439.81760	1636.37134	1513.11072	427.90176	1621.48779	1441.65186	388.14975	1491.32458	1454.38110	347.79916	1214.56628	1435.91443	531.42896	1432.03748	1444.34131	591.62494	1263.13855	1504.92236	336.53275	1313.34619	1267.46509	466.95728	1472.98413	1166.04688	521.60132	1296.06726	1131.76001	583.88171	1171.24182	1122.31592	686.43762	1084.21790	1157.36987	813.28271	1043.56116	1125.91223	782.37097	1008.43506	1118.27649	843.72803	986.42010	1630.35095	458.22302	1461.81970	1717.59680	404.93637	1281.29590	1751.73193	403.15387	1139.23999	1782.08447	416.82080	1021.76880	1773.17590	449.32898	888.17517	1805.29773	402.42831	893.88605	1810.32080	428.44308	824.82068	1313.97986	565.95203	957.64545	1568.51660	597.08344	958.54248	1422.38416	367.24780	996.54803	1534.74866	374.60019	997.79828	1281.50745	432.20947	656.24078	1320.58008	355.05032	468.97473	1325.81335	238.54198	312.62079	1361.97656	170.51016	96.88205	1413.02551	128.45316	79.15343	1349.03821	315.48795	32.80399	1666.85278	593.86066	662.89655	1638.10669	677.33960	471.53738	1662.41785	711.30872	289.39691	1644.65247	773.99200	101.54301	1594.64185	764.73810	34.64214	1647.05920	937.27759	104.59608	1463.56030	471.61670	1779.03210			 
116	1.150	1375.79443	584.78156	1707.17981	1519.35889	586.83228	1693.90881	1372.05713	452.78577	1634.54834	1514.40576	441.88083	1619.96399	1442.81274	400.47644	1489.64355	1455.55273	361.59763	1212.39014	1437.01770	544.93250	1430.54004	1445.54456	605.67273	1261.89331	1506.70557	350.51123	1311.51465	1268.95435	479.89154	1471.38660	1166.71729	534.39313	1295.04736	1131.78882	597.66400	1170.69910	1122.62537	702.49213	1085.91479	1158.35132	830.03253	1048.91870	1126.76709	800.20367	1012.96576	1119.81409	861.66870	992.53705	1631.49817	471.71255	1460.42651	1718.89514	418.25891	1280.11121	1752.81189	415.88351	1138.10229	1784.13977	429.13467	1021.06470	1775.86865	461.05823	887.16937	1807.47217	413.82904	893.11078	1813.19226	439.57990	824.06732	1315.05750	580.61761	955.85773	1569.60632	613.11743	957.73969	1424.58826	382.67303	994.83862	1537.14294	390.17380	996.54919	1282.65454	445.30157	655.50159	1320.78845	367.13159	468.75772	1325.74573	246.92139	315.34570	1361.12769	172.99432	101.37466	1412.10278	130.50124	85.38892	1348.75391	315.64096	32.79810	1667.87219	614.41846	663.59442	1638.54456	695.61359	470.99713	1662.50427	725.10797	287.73456	1643.80371	781.74402	98.21778	1593.50952	769.75354	31.26672	1643.66504	945.17798	97.38531	1464.46167	485.48325	1777.44324	-3357.02222	2846.17847	1034.37415 
117	1.160	1376.18469	598.03668	1705.38782	1519.59741	600.92761	1692.21082	1373.53308	465.91656	1633.07104	1515.76782	455.82129	1618.52222	1444.31543	414.90201	1487.88037	1456.96484	375.70938	1210.53479	1438.20068	558.49237	1429.12024	1446.88354	619.86053	1260.75916	1508.33081	364.70941	1309.52258	1270.41882	492.77374	1469.82397	1167.95508	547.63678	1294.11047	1131.94385	610.73529	1169.92676	1123.29053	717.94208	1087.58044	1159.33875	845.97974	1054.05408	1127.80383	817.08600	1017.12799	1121.10938	879.06842	998.10980	1632.63196	485.20892	1459.21643	1720.33521	431.71707	1279.12512	1754.46045	429.29691	1137.28516	1785.73743	441.80600	1020.09473	1778.41382	473.37918	886.21716	1809.46802	425.80676	892.28693	1816.01245	451.54895	823.44464	1316.43652	595.86450	954.17688	1571.03442	629.64465	957.13214	1426.78772	398.55054	993.34790	1539.41101	405.92148	995.30872	1283.77686	458.97897	654.48022	1320.89270	379.99619	468.45917	1325.54248	255.97975	318.29959	1360.11426	175.87544	106.50977	1411.07239	133.20029	91.91505	1348.39319	315.90112	32.73983	1669.29248	636.24457	664.77356	1639.48499	712.88269	470.02673	1662.47681	737.32037	285.28757	1642.97449	788.71143	94.78336	1593.89917	772.98889	30.39333	1641.01697	951.66748	89.75587	1465.29565	499.42484	1775.78064	-3356.95264	2846.01416	1034.11926 
118	1.170	1376.39941	611.09436	1703.46167	1519.93188	615.04248	1690.57764	1374.69177	478.80264	1631.31653	1517.11267	469.83527	1617.09546	1445.83142	428.19354	1486.14246	1458.55762	389.76224	1208.70374	1439.47461	572.07629	1427.80640	1448.44604	634.28821	1259.80383	1509.71423	378.66208	1307.29150	1272.05066	505.58887	1468.23047	1168.93079	559.86237	1292.97522	1132.14600	623.29547	1168.94470	1123.91382	731.76392	1088.94470	1160.49524	861.00452	1058.55676	1129.33618	833.11639	1020.50891	1122.59094	895.60437	1003.44073	1633.64465	498.56836	1457.95630	1721.99805	445.38928	1278.19165	1755.82324	442.69141	1136.32361	1787.86292	455.20151	1019.47382	1780.91919	486.47287	885.44891	1811.81274	438.83191	891.78491	1818.77563	464.41418	822.88214	1318.29626	611.77948	952.72968	1572.85645	646.37811	956.76434	1428.82861	414.62323	991.57794	1541.64954	421.78360	993.94739	1285.01538	473.43469	653.35974	1320.84253	393.78140	468.13913	1325.24377	265.73718	321.45667	1358.99121	179.32707	112.10094	1409.89380	136.61989	99.10928	1348.00464	316.25171	32.72344	1670.42017	658.18304	665.48749	1641.18738	728.90430	468.97595	1661.69824	748.44440	282.59009	1642.42493	795.39008	92.40620	1593.09143	776.29242	32.51146	1638.51770	958.55780	77.32491	1466.18457	513.26111	1774.27722	-3360.35596	2845.31421	1034.17676 
